%TF.GenerationSoftware,KiCad,Pcbnew,(6.0.0)*%
%TF.CreationDate,2022-02-25T15:50:30-05:00*%
%TF.ProjectId,heatedGrip,68656174-6564-4477-9269-702e6b696361,rev?*%
%TF.SameCoordinates,Original*%
%TF.FileFunction,Copper,L1,Top*%
%TF.FilePolarity,Positive*%
%FSLAX46Y46*%
G04 Gerber Fmt 4.6, Leading zero omitted, Abs format (unit mm)*
G04 Created by KiCad (PCBNEW (6.0.0)) date 2022-02-25 15:50:30*
%MOMM*%
%LPD*%
G01*
G04 APERTURE LIST*
G04 Aperture macros list*
%AMRoundRect*
0 Rectangle with rounded corners*
0 $1 Rounding radius*
0 $2 $3 $4 $5 $6 $7 $8 $9 X,Y pos of 4 corners*
0 Add a 4 corners polygon primitive as box body*
4,1,4,$2,$3,$4,$5,$6,$7,$8,$9,$2,$3,0*
0 Add four circle primitives for the rounded corners*
1,1,$1+$1,$2,$3*
1,1,$1+$1,$4,$5*
1,1,$1+$1,$6,$7*
1,1,$1+$1,$8,$9*
0 Add four rect primitives between the rounded corners*
20,1,$1+$1,$2,$3,$4,$5,0*
20,1,$1+$1,$4,$5,$6,$7,0*
20,1,$1+$1,$6,$7,$8,$9,0*
20,1,$1+$1,$8,$9,$2,$3,0*%
G04 Aperture macros list end*
%TA.AperFunction,SMDPad,CuDef*%
%ADD10RoundRect,0.150000X0.150000X-0.825000X0.150000X0.825000X-0.150000X0.825000X-0.150000X-0.825000X0*%
%TD*%
%TA.AperFunction,SMDPad,CuDef*%
%ADD11R,1.700000X0.650000*%
%TD*%
%TA.AperFunction,SMDPad,CuDef*%
%ADD12RoundRect,0.250000X0.625000X-0.400000X0.625000X0.400000X-0.625000X0.400000X-0.625000X-0.400000X0*%
%TD*%
%TA.AperFunction,ComponentPad*%
%ADD13C,2.400000*%
%TD*%
%TA.AperFunction,ComponentPad*%
%ADD14RoundRect,0.249600X-0.950400X-0.950400X0.950400X-0.950400X0.950400X0.950400X-0.950400X0.950400X0*%
%TD*%
%TA.AperFunction,SMDPad,CuDef*%
%ADD15RoundRect,0.150000X-0.150000X0.825000X-0.150000X-0.825000X0.150000X-0.825000X0.150000X0.825000X0*%
%TD*%
%TA.AperFunction,Conductor*%
%ADD16C,0.250000*%
%TD*%
G04 APERTURE END LIST*
D10*
%TO.P,U1,1,OUT*%
%TO.N,+5V*%
X82550000Y-165035000D03*
%TO.P,U1,2,GND*%
%TO.N,GND*%
X83820000Y-165035000D03*
%TO.P,U1,3,GND*%
X85090000Y-165035000D03*
%TO.P,U1,4,NC*%
%TO.N,unconnected-(U1-Pad4)*%
X86360000Y-165035000D03*
%TO.P,U1,5,NC*%
%TO.N,unconnected-(U1-Pad5)*%
X86360000Y-160085000D03*
%TO.P,U1,6,GND*%
%TO.N,GND*%
X85090000Y-160085000D03*
%TO.P,U1,7,GND*%
X83820000Y-160085000D03*
%TO.P,U1,8,IN*%
%TO.N,+7.5V*%
X82550000Y-160085000D03*
%TD*%
D11*
%TO.P,U2,1,~{RESET}/PB5*%
%TO.N,Net-(R1-Pad1)*%
X75405000Y-163830000D03*
%TO.P,U2,2,XTAL1/PB3*%
%TO.N,unconnected-(U2-Pad2)*%
X75405000Y-162560000D03*
%TO.P,U2,3,XTAL2/PB4*%
%TO.N,unconnected-(U2-Pad3)*%
X75405000Y-161290000D03*
%TO.P,U2,4,GND*%
%TO.N,GND*%
X75405000Y-160020000D03*
%TO.P,U2,5,AREF/PB0*%
%TO.N,Net-(J1-Pad4)*%
X68105000Y-160020000D03*
%TO.P,U2,6,PB1*%
%TO.N,Net-(J1-Pad5)*%
X68105000Y-161290000D03*
%TO.P,U2,7,PB2*%
%TO.N,Sens*%
X68105000Y-162560000D03*
%TO.P,U2,8,VCC*%
%TO.N,+5V*%
X68105000Y-163830000D03*
%TD*%
D12*
%TO.P,R1,1*%
%TO.N,Net-(R1-Pad1)*%
X78740000Y-163475000D03*
%TO.P,R1,2*%
%TO.N,Net-(R1-Pad2)*%
X78740000Y-160375000D03*
%TD*%
D13*
%TO.P,U3,14*%
%TO.N,GND*%
X87030000Y-152512500D03*
%TO.P,U3,11*%
%TO.N,+7.5V*%
X82030000Y-152512500D03*
%TO.P,U3,A2*%
%TO.N,GND*%
X62030000Y-152512500D03*
D14*
%TO.P,U3,A1*%
%TO.N,Net-(R1-Pad2)*%
X65780000Y-152512500D03*
%TD*%
D15*
%TO.P,U4,1,Vout*%
%TO.N,Sens*%
X64770000Y-159450000D03*
%TO.P,U4,2*%
%TO.N,N/C*%
X63500000Y-159450000D03*
%TO.P,U4,3*%
X62230000Y-159450000D03*
%TO.P,U4,4,GND*%
%TO.N,GND*%
X60960000Y-159450000D03*
%TO.P,U4,5,~{SHUTDOWN}*%
%TO.N,unconnected-(U4-Pad5)*%
X60960000Y-164400000D03*
%TO.P,U4,6*%
%TO.N,N/C*%
X62230000Y-164400000D03*
%TO.P,U4,7*%
X63500000Y-164400000D03*
%TO.P,U4,8,+Vs*%
%TO.N,+5V*%
X64770000Y-164400000D03*
%TD*%
D16*
%TO.N,Net-(R1-Pad1)*%
X78385000Y-163830000D02*
X78740000Y-163475000D01*
%TO.N,GND*%
X85505480Y-150987980D02*
X87030000Y-152512500D01*
%TO.N,Net-(R1-Pad1)*%
X75405000Y-163830000D02*
X78385000Y-163830000D01*
%TO.N,GND*%
X60960000Y-159450000D02*
X60960000Y-159073928D01*
X61918928Y-158115000D02*
X73500000Y-158115000D01*
X73500000Y-158115000D02*
X75405000Y-160020000D01*
%TO.N,Net-(R1-Pad2)*%
X70877500Y-152512500D02*
X78740000Y-160375000D01*
%TO.N,GND*%
X85090000Y-160085000D02*
X85090000Y-165035000D01*
%TO.N,Sens*%
X64770000Y-159450000D02*
X64770000Y-159779022D01*
%TO.N,+5V*%
X65340000Y-163830000D02*
X68105000Y-163830000D01*
%TO.N,GND*%
X85090000Y-160085000D02*
X83820000Y-160085000D01*
%TO.N,+7.5V*%
X82030000Y-152512500D02*
X82030000Y-159565000D01*
%TO.N,Net-(R1-Pad2)*%
X65780000Y-152512500D02*
X70877500Y-152512500D01*
%TO.N,GND*%
X62030000Y-152512500D02*
X60960000Y-153582500D01*
X60960000Y-159073928D02*
X61918928Y-158115000D01*
%TO.N,+5V*%
X64770000Y-164400000D02*
X65340000Y-163830000D01*
%TO.N,GND*%
X87030000Y-152512500D02*
X85090000Y-154452500D01*
%TO.N,+7.5V*%
X82030000Y-159565000D02*
X82550000Y-160085000D01*
%TO.N,Sens*%
X64770000Y-159779022D02*
X67550978Y-162560000D01*
%TO.N,GND*%
X63554520Y-150987980D02*
X85505480Y-150987980D01*
X85090000Y-165035000D02*
X83820000Y-165035000D01*
X62030000Y-152512500D02*
X63554520Y-150987980D01*
X60960000Y-153582500D02*
X60960000Y-159450000D01*
%TO.N,Sens*%
X67550978Y-162560000D02*
X68105000Y-162560000D01*
%TO.N,+5V*%
X68105000Y-163830000D02*
X69310000Y-165035000D01*
X69310000Y-165035000D02*
X82550000Y-165035000D01*
%TO.N,GND*%
X85090000Y-154452500D02*
X85090000Y-160085000D01*
%TD*%
M02*
