%TF.GenerationSoftware,KiCad,Pcbnew,(6.0.0)*%
%TF.CreationDate,2022-04-01T13:35:42-04:00*%
%TF.ProjectId,heatedGrip,68656174-6564-4477-9269-702e6b696361,rev?*%
%TF.SameCoordinates,Original*%
%TF.FileFunction,Copper,L2,Bot*%
%TF.FilePolarity,Positive*%
%FSLAX46Y46*%
G04 Gerber Fmt 4.6, Leading zero omitted, Abs format (unit mm)*
G04 Created by KiCad (PCBNEW (6.0.0)) date 2022-04-01 13:35:42*
%MOMM*%
%LPD*%
G01*
G04 APERTURE LIST*
G04 Aperture macros list*
%AMRoundRect*
0 Rectangle with rounded corners*
0 $1 Rounding radius*
0 $2 $3 $4 $5 $6 $7 $8 $9 X,Y pos of 4 corners*
0 Add a 4 corners polygon primitive as box body*
4,1,4,$2,$3,$4,$5,$6,$7,$8,$9,$2,$3,0*
0 Add four circle primitives for the rounded corners*
1,1,$1+$1,$2,$3*
1,1,$1+$1,$4,$5*
1,1,$1+$1,$6,$7*
1,1,$1+$1,$8,$9*
0 Add four rect primitives between the rounded corners*
20,1,$1+$1,$2,$3,$4,$5,0*
20,1,$1+$1,$4,$5,$6,$7,0*
20,1,$1+$1,$6,$7,$8,$9,0*
20,1,$1+$1,$8,$9,$2,$3,0*%
G04 Aperture macros list end*
%TA.AperFunction,ComponentPad*%
%ADD10R,1.600000X1.600000*%
%TD*%
%TA.AperFunction,ComponentPad*%
%ADD11O,1.600000X1.600000*%
%TD*%
%TA.AperFunction,ComponentPad*%
%ADD12R,1.700000X1.700000*%
%TD*%
%TA.AperFunction,ComponentPad*%
%ADD13O,1.700000X1.700000*%
%TD*%
%TA.AperFunction,SMDPad,CuDef*%
%ADD14RoundRect,0.250000X-0.400000X-0.625000X0.400000X-0.625000X0.400000X0.625000X-0.400000X0.625000X0*%
%TD*%
%TA.AperFunction,SMDPad,CuDef*%
%ADD15RoundRect,0.150000X0.825000X0.150000X-0.825000X0.150000X-0.825000X-0.150000X0.825000X-0.150000X0*%
%TD*%
%TA.AperFunction,SMDPad,CuDef*%
%ADD16O,0.600000X1.540000*%
%TD*%
%TA.AperFunction,Conductor*%
%ADD17C,0.250000*%
%TD*%
%TA.AperFunction,Conductor*%
%ADD18C,0.500000*%
%TD*%
G04 APERTURE END LIST*
D10*
%TO.P,U2,1,~{RESET}/PB5*%
%TO.N,Net-(J1-Pad3)*%
X153660000Y-101590000D03*
D11*
%TO.P,U2,2,XTAL1/PB3*%
%TO.N,unconnected-(U2-Pad2)*%
X153660000Y-99050000D03*
%TO.P,U2,3,XTAL2/PB4*%
%TO.N,unconnected-(U2-Pad3)*%
X153660000Y-96510000D03*
%TO.P,U2,4,GND*%
%TO.N,GND*%
X153660000Y-93970000D03*
%TO.P,U2,5,AREF/PB0*%
%TO.N,Net-(J1-Pad4)*%
X146040000Y-93970000D03*
%TO.P,U2,6,PB1*%
%TO.N,Net-(J1-Pad5)*%
X146040000Y-96510000D03*
%TO.P,U2,7,PB2*%
%TO.N,Sens*%
X146040000Y-99050000D03*
%TO.P,U2,8,VCC*%
%TO.N,+5V*%
X146040000Y-101590000D03*
%TD*%
D12*
%TO.P,J4,1,Pin_1*%
%TO.N,GND*%
X156230000Y-84430000D03*
D13*
%TO.P,J4,2,Pin_2*%
%TO.N,Net-(U4-Pad3)*%
X158770000Y-84430000D03*
%TD*%
D12*
%TO.P,J3,1,Pin_1*%
%TO.N,GND*%
X173380000Y-84470000D03*
D13*
%TO.P,J3,2,Pin_2*%
%TO.N,Sens*%
X173380000Y-87010000D03*
%TO.P,J3,3,Pin_3*%
%TO.N,+5V*%
X173380000Y-89550000D03*
%TD*%
D12*
%TO.P,J1,1,Pin_1*%
%TO.N,GND*%
X141630000Y-88925000D03*
D13*
%TO.P,J1,2,Pin_2*%
%TO.N,+5V*%
X141630000Y-91465000D03*
%TO.P,J1,3,Pin_3*%
%TO.N,Net-(J1-Pad3)*%
X141630000Y-94005000D03*
%TO.P,J1,4,Pin_4*%
%TO.N,Net-(J1-Pad4)*%
X141630000Y-96545000D03*
%TO.P,J1,5,Pin_5*%
%TO.N,Net-(J1-Pad5)*%
X141630000Y-99085000D03*
%TO.P,J1,6,Pin_6*%
%TO.N,Sens*%
X141630000Y-101625000D03*
%TD*%
D12*
%TO.P,J2,1,Pin_1*%
%TO.N,GND*%
X168255000Y-84480000D03*
D13*
%TO.P,J2,2,Pin_2*%
%TO.N,+7.5V*%
X165715000Y-84480000D03*
%TD*%
D14*
%TO.P,R1,1*%
%TO.N,Net-(J1-Pad3)*%
X157835000Y-101600000D03*
%TO.P,R1,2*%
%TO.N,Net-(R1-Pad2)*%
X160935000Y-101600000D03*
%TD*%
D15*
%TO.P,U1,1,OUT*%
%TO.N,+5V*%
X170115000Y-97155000D03*
%TO.P,U1,2,GND*%
%TO.N,GND*%
X170115000Y-98425000D03*
%TO.P,U1,3,GND*%
X170115000Y-99695000D03*
%TO.P,U1,4,NC*%
%TO.N,unconnected-(U1-Pad4)*%
X170115000Y-100965000D03*
%TO.P,U1,5,NC*%
%TO.N,unconnected-(U1-Pad5)*%
X165165000Y-100965000D03*
%TO.P,U1,6,GND*%
%TO.N,GND*%
X165165000Y-99695000D03*
%TO.P,U1,7,GND*%
X165165000Y-98425000D03*
%TO.P,U1,8,IN*%
%TO.N,+7.5V*%
X165165000Y-97155000D03*
%TD*%
D16*
%TO.P,U4,1,+_Control*%
%TO.N,Net-(R1-Pad2)*%
X161925000Y-97810000D03*
%TO.P,U4,2,-_Control*%
%TO.N,GND*%
X159385000Y-97810000D03*
%TO.P,U4,3,Load*%
%TO.N,Net-(U4-Pad3)*%
X159385000Y-93960000D03*
%TO.P,U4,4,Load*%
%TO.N,+7.5V*%
X161925000Y-93960000D03*
%TD*%
D15*
%TO.P,U3,1,Vout*%
%TO.N,Sens*%
X170115000Y-90170000D03*
%TO.P,U3,2*%
%TO.N,N/C*%
X170115000Y-91440000D03*
%TO.P,U3,3*%
X170115000Y-92710000D03*
%TO.P,U3,4,GND*%
%TO.N,GND*%
X170115000Y-93980000D03*
%TO.P,U3,5,~{SHUTDOWN}*%
%TO.N,unconnected-(U3-Pad5)*%
X165165000Y-93980000D03*
%TO.P,U3,6*%
%TO.N,N/C*%
X165165000Y-92710000D03*
%TO.P,U3,7*%
X165165000Y-91440000D03*
%TO.P,U3,8,+Vs*%
%TO.N,+5V*%
X165165000Y-90170000D03*
%TD*%
D17*
%TO.N,Net-(R1-Pad2)*%
X161925000Y-97810000D02*
X161925000Y-100610000D01*
X161925000Y-100610000D02*
X160935000Y-101600000D01*
%TO.N,+5V*%
X173380000Y-89550000D02*
X173380000Y-93890000D01*
X140455489Y-90290489D02*
X140455489Y-87750489D01*
X166889511Y-83300489D02*
X167640000Y-82550000D01*
X174625000Y-88305000D02*
X173380000Y-89550000D01*
X174625000Y-83365978D02*
X174625000Y-88305000D01*
X139700000Y-98816010D02*
X139700000Y-92075000D01*
X146040000Y-101590000D02*
X144709511Y-100259511D01*
X173380000Y-93890000D02*
X170115000Y-97155000D01*
X173809022Y-82550000D02*
X174625000Y-83365978D01*
X139700000Y-92075000D02*
X140310000Y-91465000D01*
X141630000Y-91465000D02*
X140455489Y-90290489D01*
X165165000Y-90170000D02*
X166889511Y-88445489D01*
X140455489Y-87750489D02*
X145655978Y-82550000D01*
X141143501Y-100259511D02*
X139700000Y-98816010D01*
X144709511Y-100259511D02*
X141143501Y-100259511D01*
X166889511Y-88445489D02*
X166889511Y-83300489D01*
X145655978Y-82550000D02*
X173809022Y-82550000D01*
X140310000Y-91465000D02*
X141630000Y-91465000D01*
D18*
%TO.N,GND*%
X166370000Y-98425000D02*
X165165000Y-98425000D01*
D17*
X168265000Y-84470000D02*
X168255000Y-84480000D01*
X170115000Y-93980000D02*
X168275000Y-93980000D01*
D18*
X167005000Y-97790000D02*
X166370000Y-98425000D01*
X167005000Y-96520000D02*
X167005000Y-97790000D01*
D17*
X170115000Y-98425000D02*
X170115000Y-99695000D01*
X141630000Y-88925000D02*
X148615000Y-88925000D01*
D18*
X163195000Y-98425000D02*
X165165000Y-98425000D01*
X157580000Y-97810000D02*
X159385000Y-97810000D01*
X160020000Y-95885000D02*
X159385000Y-96520000D01*
D17*
X167005000Y-97790000D02*
X167640000Y-98425000D01*
D18*
X168255000Y-94000000D02*
X168255000Y-95270000D01*
X162560000Y-95885000D02*
X160020000Y-95885000D01*
X148615000Y-88925000D02*
X153660000Y-93970000D01*
X163195000Y-96520000D02*
X163195000Y-98425000D01*
X159385000Y-96520000D02*
X159385000Y-97810000D01*
X157540000Y-97850000D02*
X153660000Y-93970000D01*
X153110000Y-84430000D02*
X148615000Y-88925000D01*
X156230000Y-84430000D02*
X153110000Y-84430000D01*
D17*
X173380000Y-84470000D02*
X168265000Y-84470000D01*
D18*
X168255000Y-84480000D02*
X168255000Y-94000000D01*
D17*
X168275000Y-93980000D02*
X168255000Y-94000000D01*
X157540000Y-97850000D02*
X157580000Y-97810000D01*
X167640000Y-98425000D02*
X170115000Y-98425000D01*
D18*
X162560000Y-95885000D02*
X163195000Y-96520000D01*
D17*
X165165000Y-98425000D02*
X165165000Y-99695000D01*
D18*
X168255000Y-95270000D02*
X167005000Y-96520000D01*
%TO.N,+7.5V*%
X161925000Y-88270000D02*
X161925000Y-93960000D01*
D17*
X161925000Y-93960000D02*
X161970000Y-93960000D01*
D18*
X163000000Y-87195000D02*
X161925000Y-88270000D01*
D17*
X161970000Y-93960000D02*
X165165000Y-97155000D01*
D18*
X165715000Y-84480000D02*
X163000000Y-87195000D01*
D17*
%TO.N,Sens*%
X170115000Y-90170000D02*
X170220000Y-90170000D01*
X147320000Y-100330000D02*
X147320000Y-102870000D01*
X169856072Y-102870000D02*
X147320000Y-102870000D01*
X168815480Y-97501552D02*
X169103928Y-97790000D01*
X147320000Y-102870000D02*
X142875000Y-102870000D01*
X142875000Y-102870000D02*
X141630000Y-101625000D01*
X171450000Y-101276072D02*
X169856072Y-102870000D01*
X168815480Y-96614520D02*
X168815480Y-97501552D01*
X170115000Y-90170000D02*
X170491072Y-90170000D01*
X170220000Y-90170000D02*
X173380000Y-87010000D01*
X171450000Y-98113928D02*
X171450000Y-101276072D01*
X146040000Y-99050000D02*
X147320000Y-100330000D01*
X171450000Y-94291072D02*
X171136552Y-94604520D01*
X171136552Y-94604520D02*
X170825480Y-94604520D01*
X170825480Y-94604520D02*
X168815480Y-96614520D01*
X170491072Y-90170000D02*
X171450000Y-91128928D01*
X171450000Y-91128928D02*
X171450000Y-94291072D01*
X171126072Y-97790000D02*
X171450000Y-98113928D01*
X169103928Y-97790000D02*
X171126072Y-97790000D01*
%TO.N,Net-(J1-Pad3)*%
X143010489Y-95385489D02*
X141630000Y-94005000D01*
X147455489Y-95385489D02*
X143010489Y-95385489D01*
X157825000Y-101590000D02*
X153660000Y-101590000D01*
X153660000Y-101590000D02*
X147455489Y-95385489D01*
X157835000Y-101600000D02*
X157825000Y-101590000D01*
%TO.N,Net-(J1-Pad4)*%
X140455489Y-95370489D02*
X141630000Y-96545000D01*
X146040000Y-93970000D02*
X144900489Y-92830489D01*
X140455489Y-93224511D02*
X140455489Y-95370489D01*
X144900489Y-92830489D02*
X140849511Y-92830489D01*
X140849511Y-92830489D02*
X140455489Y-93224511D01*
%TO.N,Net-(J1-Pad5)*%
X144205000Y-96510000D02*
X141630000Y-99085000D01*
X146040000Y-96510000D02*
X144205000Y-96510000D01*
D18*
%TO.N,Net-(U4-Pad3)*%
X159385000Y-92925000D02*
X159385000Y-93960000D01*
X158770000Y-92310000D02*
X159385000Y-92925000D01*
X158770000Y-84430000D02*
X158770000Y-92310000D01*
%TD*%
M02*
