%TF.GenerationSoftware,KiCad,Pcbnew,(6.0.0)*%
%TF.CreationDate,2022-02-28T13:37:14-05:00*%
%TF.ProjectId,heatedGrip,68656174-6564-4477-9269-702e6b696361,rev?*%
%TF.SameCoordinates,Original*%
%TF.FileFunction,Copper,L1,Top*%
%TF.FilePolarity,Positive*%
%FSLAX46Y46*%
G04 Gerber Fmt 4.6, Leading zero omitted, Abs format (unit mm)*
G04 Created by KiCad (PCBNEW (6.0.0)) date 2022-02-28 13:37:14*
%MOMM*%
%LPD*%
G01*
G04 APERTURE LIST*
G04 Aperture macros list*
%AMRoundRect*
0 Rectangle with rounded corners*
0 $1 Rounding radius*
0 $2 $3 $4 $5 $6 $7 $8 $9 X,Y pos of 4 corners*
0 Add a 4 corners polygon primitive as box body*
4,1,4,$2,$3,$4,$5,$6,$7,$8,$9,$2,$3,0*
0 Add four circle primitives for the rounded corners*
1,1,$1+$1,$2,$3*
1,1,$1+$1,$4,$5*
1,1,$1+$1,$6,$7*
1,1,$1+$1,$8,$9*
0 Add four rect primitives between the rounded corners*
20,1,$1+$1,$2,$3,$4,$5,0*
20,1,$1+$1,$4,$5,$6,$7,0*
20,1,$1+$1,$6,$7,$8,$9,0*
20,1,$1+$1,$8,$9,$2,$3,0*%
G04 Aperture macros list end*
%TA.AperFunction,SMDPad,CuDef*%
%ADD10RoundRect,0.150000X-0.825000X-0.150000X0.825000X-0.150000X0.825000X0.150000X-0.825000X0.150000X0*%
%TD*%
%TA.AperFunction,ComponentPad*%
%ADD11O,1.700000X1.700000*%
%TD*%
%TA.AperFunction,ComponentPad*%
%ADD12R,1.700000X1.700000*%
%TD*%
%TA.AperFunction,SMDPad,CuDef*%
%ADD13RoundRect,0.250000X-0.400000X-0.625000X0.400000X-0.625000X0.400000X0.625000X-0.400000X0.625000X0*%
%TD*%
%TA.AperFunction,SMDPad,CuDef*%
%ADD14O,1.540000X0.600000*%
%TD*%
%TA.AperFunction,SMDPad,CuDef*%
%ADD15RoundRect,0.150000X0.825000X0.150000X-0.825000X0.150000X-0.825000X-0.150000X0.825000X-0.150000X0*%
%TD*%
%TA.AperFunction,SMDPad,CuDef*%
%ADD16R,1.700000X0.650000*%
%TD*%
%TA.AperFunction,Conductor*%
%ADD17C,0.250000*%
%TD*%
G04 APERTURE END LIST*
D10*
%TO.P,U3,8,+Vs*%
%TO.N,+5V*%
X139635000Y-99060000D03*
%TO.P,U3,7*%
%TO.N,N/C*%
X139635000Y-100330000D03*
%TO.P,U3,6*%
X139635000Y-101600000D03*
%TO.P,U3,5,~{SHUTDOWN}*%
%TO.N,unconnected-(U3-Pad5)*%
X139635000Y-102870000D03*
%TO.P,U3,4,GND*%
%TO.N,GND*%
X134685000Y-102870000D03*
%TO.P,U3,3*%
%TO.N,N/C*%
X134685000Y-101600000D03*
%TO.P,U3,2*%
X134685000Y-100330000D03*
%TO.P,U3,1,Vout*%
%TO.N,Sens*%
X134685000Y-99060000D03*
%TD*%
D11*
%TO.P,J1,6,Pin_6*%
%TO.N,Sens*%
X147320000Y-88900000D03*
%TO.P,J1,5,Pin_5*%
%TO.N,Net-(J1-Pad5)*%
X147320000Y-86360000D03*
%TO.P,J1,4,Pin_4*%
%TO.N,Net-(J1-Pad4)*%
X147320000Y-83820000D03*
%TO.P,J1,3,Pin_3*%
%TO.N,Net-(J1-Pad3)*%
X147320000Y-81280000D03*
%TO.P,J1,2,Pin_2*%
%TO.N,GND*%
X147320000Y-78740000D03*
D12*
%TO.P,J1,1,Pin_1*%
%TO.N,+5V*%
X147320000Y-76200000D03*
%TD*%
D13*
%TO.P,R1,1*%
%TO.N,Net-(J1-Pad3)*%
X134340000Y-92075000D03*
%TO.P,R1,2*%
%TO.N,Net-(R1-Pad2)*%
X137440000Y-92075000D03*
%TD*%
D12*
%TO.P,J3,1,Pin_1*%
%TO.N,GND*%
X147345000Y-100965000D03*
D11*
%TO.P,J3,2,Pin_2*%
%TO.N,Sens*%
X147345000Y-103505000D03*
%TO.P,J3,3,Pin_3*%
%TO.N,+5V*%
X147345000Y-106045000D03*
%TD*%
D14*
%TO.P,U4,1,+_Control*%
%TO.N,Net-(R1-Pad2)*%
X139680000Y-92075000D03*
%TO.P,U4,2,-_Control*%
%TO.N,GND*%
X139680000Y-94615000D03*
%TO.P,U4,3,Load*%
X143530000Y-94615000D03*
%TO.P,U4,4,Load*%
%TO.N,+7.5V*%
X143530000Y-92075000D03*
%TD*%
D15*
%TO.P,U1,1,OUT*%
%TO.N,+5V*%
X142810000Y-80010000D03*
%TO.P,U1,2,GND*%
%TO.N,GND*%
X142810000Y-78740000D03*
%TO.P,U1,3,GND*%
X142810000Y-77470000D03*
%TO.P,U1,4,NC*%
%TO.N,unconnected-(U1-Pad4)*%
X142810000Y-76200000D03*
%TO.P,U1,5,NC*%
%TO.N,unconnected-(U1-Pad5)*%
X137860000Y-76200000D03*
%TO.P,U1,6,GND*%
%TO.N,GND*%
X137860000Y-77470000D03*
%TO.P,U1,7,GND*%
X137860000Y-78740000D03*
%TO.P,U1,8,IN*%
%TO.N,+7.5V*%
X137860000Y-80010000D03*
%TD*%
D16*
%TO.P,U2,1,~{RESET}/PB5*%
%TO.N,Net-(J1-Pad3)*%
X135415000Y-83820000D03*
%TO.P,U2,2,XTAL1/PB3*%
%TO.N,unconnected-(U2-Pad2)*%
X135415000Y-85090000D03*
%TO.P,U2,3,XTAL2/PB4*%
%TO.N,unconnected-(U2-Pad3)*%
X135415000Y-86360000D03*
%TO.P,U2,4,GND*%
%TO.N,GND*%
X135415000Y-87630000D03*
%TO.P,U2,5,AREF/PB0*%
%TO.N,Net-(J1-Pad4)*%
X142715000Y-87630000D03*
%TO.P,U2,6,PB1*%
%TO.N,Net-(J1-Pad5)*%
X142715000Y-86360000D03*
%TO.P,U2,7,PB2*%
%TO.N,Sens*%
X142715000Y-85090000D03*
%TO.P,U2,8,VCC*%
%TO.N,+5V*%
X142715000Y-83820000D03*
%TD*%
D12*
%TO.P,J2,1,Pin_1*%
%TO.N,GND*%
X147345000Y-94000000D03*
D11*
%TO.P,J2,2,Pin_2*%
%TO.N,+7.5V*%
X147345000Y-96540000D03*
%TD*%
D17*
%TO.N,GND*%
X138623928Y-100965000D02*
X134620000Y-96961072D01*
X147345000Y-100965000D02*
X138623928Y-100965000D01*
X134620000Y-96520000D02*
X136525000Y-94615000D01*
X134620000Y-96961072D02*
X134620000Y-96520000D01*
X132715000Y-98425000D02*
X134620000Y-96520000D01*
%TO.N,Sens*%
X149225000Y-103505000D02*
X149162490Y-103442490D01*
X149225000Y-107315000D02*
X149225000Y-103505000D01*
X142433928Y-107315000D02*
X149225000Y-107315000D01*
X137795000Y-102676072D02*
X142433928Y-107315000D01*
X137795000Y-101793928D02*
X137795000Y-102676072D01*
X135061072Y-99060000D02*
X137795000Y-101793928D01*
X134685000Y-99060000D02*
X135061072Y-99060000D01*
X149162490Y-103442490D02*
X149734980Y-102870000D01*
X149099980Y-103505000D02*
X149162490Y-103442490D01*
%TO.N,+5V*%
X148907500Y-101751522D02*
X148907500Y-98107500D01*
X146050000Y-102235000D02*
X148424022Y-102235000D01*
X145415000Y-102870000D02*
X146050000Y-102235000D01*
X146050000Y-106045000D02*
X145415000Y-105410000D01*
X148424022Y-102235000D02*
X148907500Y-101751522D01*
X147345000Y-106045000D02*
X146050000Y-106045000D01*
X147955000Y-99060000D02*
X148907500Y-98107500D01*
X148907500Y-98107500D02*
X149225000Y-97790000D01*
X145415000Y-105410000D02*
X145415000Y-102870000D01*
%TO.N,Sens*%
X149734980Y-101235940D02*
X149674520Y-101175480D01*
X149734980Y-102870000D02*
X149734980Y-101235940D01*
X147345000Y-103505000D02*
X149099980Y-103505000D01*
%TO.N,GND*%
X137795000Y-94615000D02*
X139680000Y-94615000D01*
X136525000Y-94615000D02*
X137795000Y-94615000D01*
X132715000Y-101276072D02*
X132715000Y-98425000D01*
X134308928Y-102870000D02*
X132715000Y-101276072D01*
X134685000Y-102870000D02*
X134308928Y-102870000D01*
%TO.N,Sens*%
X134685000Y-99060000D02*
X134308928Y-99060000D01*
%TO.N,+5V*%
X140970000Y-83820000D02*
X142715000Y-83820000D01*
X139700000Y-85090000D02*
X140970000Y-83820000D01*
X139700000Y-86360000D02*
X139700000Y-85090000D01*
X144790480Y-91450480D02*
X139700000Y-86360000D01*
X147780220Y-91450480D02*
X144790480Y-91450480D01*
X149225000Y-92895260D02*
X147780220Y-91450480D01*
X149225000Y-97790000D02*
X149225000Y-92895260D01*
X139635000Y-99060000D02*
X147955000Y-99060000D01*
%TO.N,Net-(J1-Pad3)*%
X133350000Y-85330978D02*
X134860978Y-83820000D01*
X134340000Y-91160000D02*
X133350000Y-90170000D01*
X134340000Y-92075000D02*
X134340000Y-91160000D01*
X133350000Y-90170000D02*
X133350000Y-85330978D01*
X134860978Y-83820000D02*
X135415000Y-83820000D01*
X135415000Y-76998928D02*
X135415000Y-83820000D01*
X149039520Y-75570498D02*
X148494511Y-75025489D01*
X148494511Y-75025489D02*
X137388439Y-75025489D01*
X149039520Y-79560480D02*
X149039520Y-75570498D01*
X147320000Y-81280000D02*
X149039520Y-79560480D01*
X137388439Y-75025489D02*
X135415000Y-76998928D01*
%TO.N,GND*%
X134685000Y-102870000D02*
X135255000Y-102870000D01*
%TO.N,Sens*%
X149674520Y-84513510D02*
X149674520Y-101175480D01*
X147806499Y-82645489D02*
X149674520Y-84513510D01*
X146145489Y-83333501D02*
X146833501Y-82645489D01*
X146145489Y-84306499D02*
X146145489Y-83333501D01*
X146833501Y-84994511D02*
X146145489Y-84306499D01*
X147806499Y-84994511D02*
X146833501Y-84994511D01*
X148775480Y-87444520D02*
X148775480Y-85963492D01*
X147320000Y-88900000D02*
X148775480Y-87444520D01*
X148775480Y-85963492D02*
X147806499Y-84994511D01*
X146833501Y-82645489D02*
X147806499Y-82645489D01*
%TO.N,+5V*%
X139635000Y-99060000D02*
X140360000Y-99060000D01*
X148590000Y-79131010D02*
X148590000Y-77470000D01*
X148590000Y-77470000D02*
X147320000Y-76200000D01*
X143118990Y-83820000D02*
X146928990Y-80010000D01*
X142715000Y-83820000D02*
X143118990Y-83820000D01*
X146928990Y-80010000D02*
X147711010Y-80010000D01*
X147711010Y-80010000D02*
X148590000Y-79131010D01*
%TO.N,GND*%
X137860000Y-78740000D02*
X142810000Y-78740000D01*
X137860000Y-77470000D02*
X137860000Y-78740000D01*
X142810000Y-77470000D02*
X142810000Y-78740000D01*
X141510480Y-80550480D02*
X141594520Y-80634520D01*
X141510480Y-79663448D02*
X141510480Y-80550480D01*
X142433928Y-78740000D02*
X141510480Y-79663448D01*
X141594520Y-80634520D02*
X145425480Y-80634520D01*
X142810000Y-78740000D02*
X142433928Y-78740000D01*
X145425480Y-80634520D02*
X147320000Y-78740000D01*
X137160000Y-87630000D02*
X135415000Y-87630000D01*
X137160000Y-83820000D02*
X137160000Y-87630000D01*
X136560480Y-83220480D02*
X137160000Y-83820000D01*
X136560480Y-79663448D02*
X136560480Y-83220480D01*
X137483928Y-78740000D02*
X136560480Y-79663448D01*
X137860000Y-78740000D02*
X137483928Y-78740000D01*
%TO.N,+7.5V*%
X137860000Y-86405000D02*
X143530000Y-92075000D01*
X137860000Y-80010000D02*
X137860000Y-86405000D01*
%TO.N,GND*%
X140774520Y-93520480D02*
X140774520Y-91244520D01*
X140774520Y-91244520D02*
X137160000Y-87630000D01*
X139680000Y-94615000D02*
X140774520Y-93520480D01*
%TO.N,Net-(R1-Pad2)*%
X137440000Y-92075000D02*
X139680000Y-92075000D01*
%TO.N,GND*%
X139680000Y-94615000D02*
X143530000Y-94615000D01*
X146730000Y-94615000D02*
X147345000Y-94000000D01*
X143530000Y-94615000D02*
X146730000Y-94615000D01*
%TO.N,+7.5V*%
X148519511Y-95365489D02*
X147345000Y-96540000D01*
X147769022Y-92075000D02*
X148519511Y-92825489D01*
X148519511Y-92825489D02*
X148519511Y-95365489D01*
X143530000Y-92075000D02*
X147769022Y-92075000D01*
%TO.N,Sens*%
X148590000Y-85968990D02*
X148590000Y-87630000D01*
X148590000Y-87630000D02*
X147320000Y-88900000D01*
X147711010Y-85090000D02*
X148590000Y-85968990D01*
X142715000Y-85090000D02*
X147711010Y-85090000D01*
%TO.N,Net-(J1-Pad4)*%
X148590000Y-90170000D02*
X149225000Y-89535000D01*
X149225000Y-89535000D02*
X149225000Y-85725000D01*
X149225000Y-85725000D02*
X147320000Y-83820000D01*
X142715000Y-87630000D02*
X145255000Y-90170000D01*
X145255000Y-90170000D02*
X148590000Y-90170000D01*
%TO.N,Net-(J1-Pad5)*%
X142715000Y-86360000D02*
X147320000Y-86360000D01*
%TO.N,+5V*%
X143510000Y-80010000D02*
X147320000Y-76200000D01*
X142810000Y-80010000D02*
X143510000Y-80010000D01*
%TD*%
M02*
